# xmcd
#
# Track frame offsets: 
#        150
#        17466
#        31716
#        45251
#        60700
#        74552
#        92160
#        107476
#        130935
#        142996
#        164677
#        180994
#        198671
#        210820
#        229814
#        249142
#        263957
#        282367
#        299645
#        312755
#        340485
#
# Disc length: 4726 seconds
#
# Revision: 0
# Processed by: cddbd v1.5.1PL0 Copyright (c) Steve Scherf et al.
# Submitted via: ExactAudioCopy v0.95a5
#
DISCID=2c127415
DTITLE=Oscar Benton - The Best
DYEAR=2002
DGENRE=BLUES
TTITLE0=BENSONHURST BLUES
TTITLE1=WOOLY BOOLY BOOGIE
TTITLE2=THE LONG AND WINDING ROAD
TTITLE3=BUSTED
TTITLE4=BASIN STREET BLUES
TTITLE5=NOT THE SAME DREAMS ANYMORE
TTITLE6=I BELIEVE IN LOVE
TTITLE7=ST.LOUIS BLUES
TTITLE8=NEVER NEVER LEAVE ME
TTITLE9=IF YOU GO AWAY
TTITLE10=IT AIN'T NOBODY'S BUSINESS
TTITLE11=NOW CAN I JUST START AGAIN
TTITLE12=MY PETITE FLEUR
TTITLE13=THE THREE BELLS
TTITLE14=I FEEL SO GOOD
TTITLE15=THE DAY I GOT RID OF THE BLUES
TTITLE16=TODAY IS YESTERDAY TOMORROW
TTITLE17=ROLL ON SWEET MISSIISSIPPI
TTITLE18=STOP WHAT YOU'RE DOING
TTITLE19=I DON'T KNOW
TTITLE20=BENSONHURST BLUES (1972)
EXTD=
EXTT0=
EXTT1=
EXTT2=
EXTT3=
EXTT4=
EXTT5=
EXTT6=
EXTT7=
EXTT8=
EXTT9=
EXTT10=
EXTT11=
EXTT12=
EXTT13=
EXTT14=
EXTT15=
EXTT16=
EXTT17=
EXTT18=
EXTT19=
EXTT20=
PLAYORDER=
